<svg width="2419" height="1627" viewBox="0 0 2419 1627" fill="none" xmlns="http://www.w3.org/2000/svg" xmlns:xlink="http://www.w3.org/1999/xlink">
<rect width="2419" height="1627" fill="url(#pattern0_1433_40689)"/>
<defs>
<pattern id="pattern0_1433_40689" patternUnits="userSpaceOnUse" patternTransform="matrix(363.58 0 0 680.52 0 0)" preserveAspectRatio="none" viewBox="0 0 363.58 680.52" width="1" height="1">
<use xlink:href="#pattern0_1433_40689_inner" transform="translate(-363.58 0)"/>
<g id="pattern0_1433_40689_inner">
<path d="M214 244.75C193.98 244.75 177.75 260.98 177.75 281C177.75 301.02 193.98 317.25 214 317.25C234.02 317.25 250.25 301.02 250.25 281C250.25 260.98 234.02 244.75 214 244.75ZM181.505 280.483C184.735 279.322 187.73 277.592 190.35 275.375C193.325 272.875 195.7 269.875 197.425 266.55C199.425 267.575 201.375 268.675 203.3 269.85C195.712 279.169 190.937 290.457 189.532 302.392C184.226 296.341 181.364 288.53 181.505 280.483ZM210.425 313.308C203.514 312.55 197.03 309.588 191.932 304.86C192.957 292.547 197.697 280.835 205.525 271.275C208.025 272.9 210.425 274.625 212.75 276.475C212.275 276.975 211.825 277.475 211.375 278.025C206.5 284 204.25 291.525 205.025 299.225C205.544 304.314 207.407 309.177 210.425 313.308ZM236.38 304.565C230.346 310.31 222.331 313.51 214 313.5H213.968C210.397 309.426 208.189 304.34 207.65 298.95C207.263 295.168 207.701 291.347 208.936 287.752C210.171 284.156 212.171 280.871 214.8 278.125C223.559 285.536 230.875 294.498 236.38 304.565ZM245.438 272.723C246.13 275.365 246.5 278.14 246.5 281C246.5 289.285 243.4 296.845 238.3 302.585C232.741 292.609 225.433 283.714 216.725 276.325C220.75 272.85 225.75 270.7 231.15 270.15C236.06 269.64 241.014 270.53 245.438 272.723ZM230.55 253.025C236.855 256.766 241.716 262.521 244.35 269.363C240.069 267.681 235.447 267.051 230.873 267.525C224.773 268.15 219.148 270.625 214.648 274.625C212.273 272.725 209.797 270.925 207.247 269.25C213.64 262.095 221.621 256.537 230.55 253.025ZM200.567 251.4C204.786 249.483 209.367 248.494 214 248.5C218.83 248.5 223.413 249.553 227.533 251.443C218.908 255.179 211.214 260.773 205 267.825C202.9 266.525 200.75 265.3 198.525 264.15C199.6 261.5 200.275 258.675 200.525 255.75C200.665 254.288 200.67 252.837 200.567 251.4ZM189.2 259.993C191.68 257.062 194.659 254.594 198 252.703C198.025 253.643 198 254.583 197.925 255.525C197.7 258.125 197.1 260.625 196.175 263C193.891 261.905 191.564 260.902 189.2 259.993ZM181.678 277.583C182.253 272.027 184.262 266.716 187.507 262.17C190.077 263.123 192.603 264.192 195.075 265.375C193.5 268.4 191.35 271.1 188.65 273.375C186.503 275.185 184.15 276.578 181.678 277.583Z" fill="black"/>
<path d="M303 50C294.513 50 286.374 53.3714 280.373 59.3726C274.371 65.3737 271 73.5131 271 82C271 90.4869 274.371 98.6263 280.373 104.627C286.374 110.629 294.513 114 303 114C311.487 114 319.626 110.629 325.627 104.627C331.629 98.6263 335 90.4869 335 82C335 73.5131 331.629 65.3737 325.627 59.3726C319.626 53.3714 311.487 50 303 50ZM296.344 54.796C300.719 53.7245 305.289 53.7245 309.664 54.796L303 58.68L296.344 54.796ZM291.368 56.524L301.008 62.144V68.944L289.932 76.752L283.692 74.484L281.188 64.436C283.919 61.0412 287.405 58.3347 291.368 56.524ZM278.204 68.984L279.776 75.304L275.12 79.44C275.46 75.692 276.532 72.16 278.204 68.984ZM275.14 84.768L282.448 78.288L288.632 80.532L292.812 93.692L289.944 97.984H280.008C277.278 94.0691 275.6 89.5181 275.136 84.768M283.388 101.984H289.604L291.644 107.6C288.578 106.238 285.781 104.336 283.388 101.984ZM296.492 109.24L293.232 100.256L296.072 96.004H309.94L312.784 100.256L309.524 109.236C305.24 110.261 300.776 110.265 296.492 109.24ZM314.376 107.588L316.416 101.98H322.612C320.224 104.327 317.435 106.226 314.376 107.588ZM325.992 97.98H316.08L313.2 93.68L317.3 80.532L323.568 78.276L330.864 84.764C330.4 89.5141 328.722 94.0651 325.992 97.98ZM330.884 79.428L326.244 75.304L327.816 69.016C329.472 72.176 330.544 75.696 330.884 79.428ZM324.828 64.46L322.328 74.472L315.992 76.752L305.004 68.944V62.144L314.64 56.52C318.61 58.336 322.1 61.055 324.832 64.46M292.592 79.78L303 72.428L313.344 79.776L309.536 92H296.468L292.592 79.78Z" fill="black"/>
<path d="M135.5 187.109C130.478 187.109 125.569 188.599 121.394 191.388C117.218 194.178 113.964 198.144 112.042 202.783C110.12 207.423 109.618 212.528 110.597 217.453C111.577 222.379 113.995 226.903 117.546 230.454C121.097 234.005 125.621 236.423 130.547 237.403C135.472 238.382 140.577 237.88 145.217 235.958C149.856 234.036 153.822 230.782 156.612 226.606C159.402 222.431 160.891 217.522 160.891 212.5C160.883 205.768 158.206 199.314 153.446 194.554C148.686 189.794 142.232 187.117 135.5 187.109ZM157.082 221.435C153.307 224.097 148.827 225.58 144.209 225.696C139.591 225.812 135.042 224.556 131.138 222.087L136.087 213.516H158.837C158.72 216.238 158.126 218.918 157.082 221.435ZM124.714 191.786C127.129 190.522 129.75 189.694 132.453 189.341C136.645 191.281 140.168 194.42 142.576 198.361C144.984 202.302 146.17 206.869 145.984 211.484H136.081L124.714 191.786ZM158.837 211.484H148.015C148.178 207.069 147.186 202.687 145.138 198.771C143.09 194.856 140.056 191.543 136.335 189.158C142.204 189.375 147.776 191.792 151.945 195.928C156.114 200.064 158.574 205.618 158.837 211.484ZM122.955 192.802L128.363 202.169C124.458 204.235 121.16 207.283 118.793 211.013C116.426 214.743 115.072 219.026 114.865 223.438C112.111 218.251 111.415 212.216 112.914 206.537C114.413 200.858 117.999 195.954 122.955 192.802ZM116.965 226.704C116.551 222.106 117.509 217.489 119.718 213.435C121.926 209.382 125.286 206.074 129.373 203.928L134.327 212.5L122.955 232.198C120.655 230.727 118.628 228.868 116.965 226.704ZM135.5 235.859C131.744 235.863 128.042 234.956 124.714 233.214L130.122 223.847C133.863 226.195 138.151 227.527 142.563 227.712C146.976 227.897 151.36 226.929 155.284 224.903C153.184 228.255 150.267 231.019 146.806 232.935C143.346 234.852 139.456 235.858 135.5 235.859Z" fill="black"/>
<path d="M239.913 140.097C236.57 136.753 232.31 134.476 227.673 133.553C223.035 132.631 218.229 133.104 213.86 134.913C209.492 136.723 205.758 139.787 203.131 143.718C200.504 147.65 199.102 152.272 199.102 157C199.102 161.728 200.504 166.351 203.131 170.282C205.758 174.213 209.492 177.278 213.86 179.087C218.229 180.896 223.035 181.369 227.673 180.447C232.31 179.524 236.57 177.247 239.913 173.903C242.15 171.693 243.925 169.061 245.137 166.159C246.349 163.258 246.973 160.144 246.973 157C246.973 153.856 246.349 150.742 245.137 147.841C243.925 144.939 242.15 142.307 239.913 140.097ZM208.078 142.084C211.666 138.493 216.432 136.323 221.496 135.974C221.147 141.036 218.971 145.798 215.374 149.376C211.793 152.973 207.029 155.147 201.966 155.495C202.316 150.433 204.487 145.669 208.078 142.084ZM201.954 158.32C207.772 157.975 213.261 155.503 217.376 151.375C221.506 147.268 223.982 141.786 224.332 135.972C229.461 136.282 234.299 138.459 237.933 142.092C241.567 145.724 243.746 150.561 244.059 155.69C238.248 156.053 232.769 158.525 228.651 162.642C224.533 166.758 222.059 172.236 221.693 178.047C216.56 177.739 211.718 175.562 208.082 171.927C204.445 168.293 202.265 163.452 201.954 158.32ZM237.923 171.913C234.335 175.503 229.569 177.673 224.505 178.021C224.868 172.962 227.043 168.204 230.63 164.619C234.217 161.034 238.977 158.862 244.036 158.502C243.686 163.565 241.515 168.33 237.923 171.916V171.913Z" fill="black"/>
<path d="M222 2.34375C209.487 2.34375 199.344 12.4875 199.344 25C199.344 37.5125 209.487 47.6562 222 47.6562C234.513 47.6562 244.656 37.5125 244.656 25C244.656 12.4875 234.513 2.34375 222 2.34375ZM201.691 24.6766C203.709 23.951 205.581 22.8699 207.219 21.4844C209.078 19.9219 210.562 18.0469 211.641 15.9688C212.891 16.6094 214.109 17.2969 215.313 18.0312C210.57 23.8558 207.586 30.9108 206.708 38.3703C203.391 34.5881 201.603 29.7061 201.691 24.6766ZM219.766 45.1922C215.446 44.719 211.394 42.8678 208.208 39.9125C208.848 32.2167 211.811 24.8969 216.703 18.9219C218.266 19.9375 219.766 21.0156 221.219 22.1719C220.922 22.4844 220.641 22.7969 220.359 23.1406C217.312 26.875 215.906 31.5781 216.391 36.3906C216.715 39.5715 217.88 42.6103 219.766 45.1922ZM235.987 39.7281C232.216 43.3187 227.207 45.3186 222 45.3125H221.98C219.748 42.7665 218.368 39.5873 218.031 36.2188C217.789 33.8551 218.063 31.467 218.835 29.2198C219.607 26.9725 220.857 24.9196 222.5 23.2031C227.974 27.8353 232.547 33.4364 235.987 39.7281ZM241.648 19.8266C242.081 21.4781 242.312 23.2125 242.312 25C242.312 30.1781 240.375 34.9031 237.187 38.4906C233.713 32.2557 229.145 26.6963 223.703 22.0781C226.219 19.9063 229.344 18.5625 232.719 18.2187C235.788 17.8999 238.884 18.4564 241.648 19.8266ZM232.344 7.51562C236.284 9.85355 239.323 13.4505 240.969 17.7266C238.293 16.6755 235.405 16.2816 232.545 16.5781C228.733 16.9687 225.217 18.5156 222.405 21.0156C220.92 19.8281 219.373 18.7031 217.78 17.6563C221.775 13.1841 226.763 9.71093 232.344 7.51562ZM213.605 6.5C216.241 5.30203 219.104 4.68395 222 4.6875C225.019 4.6875 227.883 5.34531 230.458 6.52656C225.067 8.86186 220.259 12.358 216.375 16.7656C215.062 15.9531 213.719 15.1875 212.328 14.4688C213 12.8125 213.422 11.0469 213.578 9.21875C213.666 8.30469 213.669 7.39844 213.605 6.5ZM206.5 11.8703C208.05 10.0386 209.912 8.49605 212 7.31406C212.016 7.90156 212 8.48958 211.953 9.07812C211.812 10.7031 211.437 12.2656 210.859 13.75C209.432 13.0656 207.978 12.4385 206.5 11.8703ZM201.798 22.8641C202.158 19.3918 203.414 16.0725 205.442 13.2313C207.048 13.8266 208.627 14.495 210.172 15.2344C209.188 17.125 207.844 18.8125 206.156 20.2344C204.814 21.3656 203.344 22.2359 201.798 22.8641Z" fill="black"/>
<path d="M73 27.3438C60.4875 27.3438 50.3438 37.4875 50.3438 50C50.3438 62.5125 60.4875 72.6562 73 72.6562C85.5125 72.6562 95.6562 62.5125 95.6562 50C95.6562 37.4875 85.5125 27.3438 73 27.3438ZM52.6906 49.6766C54.7091 48.951 56.5813 47.8699 58.2187 46.4844C60.0781 44.9219 61.5625 43.0469 62.6406 40.9688C63.8906 41.6094 65.1094 42.2969 66.3125 43.0312C61.5703 48.8558 58.5856 55.9108 57.7078 63.3703C54.3914 59.5881 52.6027 54.7061 52.6906 49.6766ZM70.7656 70.1922C66.446 69.719 62.3936 67.8678 59.2078 64.9125C59.8484 57.2167 62.8108 49.8969 67.7031 43.9219C69.2656 44.9375 70.7656 46.0156 72.2188 47.1719C71.9219 47.4844 71.6406 47.7969 71.3594 48.1406C68.3125 51.875 66.9062 56.5781 67.3906 61.3906C67.7148 64.5715 68.8797 67.6103 70.7656 70.1922ZM86.9875 64.7281C83.2164 68.3187 78.2071 70.3186 73 70.3125H72.9797C70.7484 67.7665 69.368 64.5873 69.0313 61.2188C68.7892 58.8551 69.0634 56.467 69.835 54.2198C70.6066 51.9725 71.8571 49.9196 73.5 48.2031C78.9743 52.8353 83.5467 58.4364 86.9875 64.7281ZM92.6484 44.8266C93.0813 46.4781 93.3125 48.2125 93.3125 50C93.3125 55.1781 91.375 59.9031 88.1875 63.4906C84.713 57.2557 80.1455 51.6963 74.7031 47.0781C77.2188 44.9063 80.3438 43.5625 83.7188 43.2187C86.7876 42.8999 89.884 43.4564 92.6484 44.8266ZM83.3438 32.5156C87.2843 34.8535 90.3226 38.4505 91.9687 42.7266C89.2932 41.6755 86.4046 41.2816 83.5453 41.5781C79.7328 41.9687 76.2172 43.5156 73.4047 46.0156C71.9203 44.8281 70.3734 43.7031 68.7797 42.6563C72.775 38.1841 77.7631 34.7109 83.3438 32.5156ZM64.6047 31.5C67.2412 30.302 70.1041 29.6839 73 29.6875C76.0188 29.6875 78.8828 30.3453 81.4578 31.5266C76.0674 33.8619 71.2587 37.358 67.375 41.7656C66.0625 40.9531 64.7188 40.1875 63.3281 39.4688C64 37.8125 64.4219 36.0469 64.5781 34.2188C64.6656 33.3047 64.6687 32.3984 64.6047 31.5ZM57.5 36.8703C59.0498 35.0386 60.912 33.4961 63 32.3141C63.0156 32.9016 63 33.4896 62.9531 34.0781C62.8125 35.7031 62.4375 37.2656 61.8594 38.75C60.4319 38.0656 58.9776 37.4385 57.5 36.8703ZM52.7984 47.8641C53.1584 44.3918 54.4139 41.0725 56.4422 38.2313C58.0484 38.8266 59.6266 39.495 61.1719 40.2344C60.1875 42.125 58.8438 43.8125 57.1563 45.2344C55.8141 46.3656 54.3438 47.2359 52.7984 47.8641Z" fill="black"/>
<path d="M177.094 76.9141C174.308 74.1277 170.758 72.23 166.893 71.4611C163.029 70.6922 159.023 71.0866 155.383 72.5943C151.742 74.1021 148.631 76.6555 146.442 79.9317C144.252 83.2079 143.084 87.0597 143.084 91C143.084 94.9403 144.252 98.7921 146.442 102.068C148.631 105.344 151.742 107.898 155.383 109.406C159.023 110.913 163.029 111.308 166.893 110.539C170.758 109.77 174.308 107.872 177.094 105.086C178.957 103.244 180.437 101.05 181.447 98.6326C182.457 96.2146 182.977 93.6203 182.977 91C182.977 88.3797 182.457 85.7854 181.447 83.3674C180.437 80.9495 178.957 78.756 177.094 76.9141ZM150.564 78.5703C153.554 75.5777 157.526 73.769 161.746 73.4785C161.455 77.6964 159.642 81.665 156.644 84.6465C153.661 87.6438 149.69 89.4559 145.471 89.7461C145.763 85.5278 147.572 81.5579 150.564 78.5703ZM145.461 92.0996C150.31 91.8125 154.884 89.7528 158.312 86.3125C161.755 82.8904 163.818 78.3217 164.109 73.4766C168.383 73.7353 172.415 75.5493 175.444 78.5764C178.472 81.6034 180.288 85.6342 180.549 89.9082C175.706 90.2112 171.14 92.2711 167.709 95.7014C164.277 99.1317 162.215 103.696 161.91 108.539C157.633 108.282 153.598 106.468 150.567 103.439C147.537 100.411 145.72 96.3766 145.461 92.0996ZM175.436 103.428C172.446 106.419 168.474 108.228 164.254 108.518C164.556 104.302 166.368 100.337 169.358 97.3491C172.347 94.3614 176.313 92.5518 180.529 92.252C180.238 96.471 178.428 100.442 175.436 103.43V103.428Z" fill="black"/>
<path d="M301.5 197.922C298.023 197.922 294.625 198.953 291.734 200.884C288.843 202.816 286.59 205.561 285.26 208.773C283.929 211.985 283.581 215.519 284.26 218.929C284.938 222.339 286.612 225.471 289.07 227.93C291.529 230.388 294.661 232.062 298.071 232.74C301.481 233.419 305.015 233.071 308.227 231.74C311.439 230.41 314.184 228.157 316.116 225.266C318.047 222.375 319.078 218.977 319.078 215.5C319.073 210.84 317.219 206.371 313.924 203.076C310.629 199.781 306.16 197.927 301.5 197.922ZM316.441 221.686C313.828 223.529 310.726 224.555 307.529 224.635C304.332 224.716 301.183 223.847 298.48 222.137L301.906 216.203H317.656C317.575 218.088 317.164 219.943 316.441 221.686ZM294.033 201.16C295.705 200.284 297.519 199.711 299.391 199.467C302.293 200.81 304.732 202.983 306.399 205.712C308.066 208.44 308.887 211.602 308.758 214.797H301.903L294.033 201.16ZM317.656 214.797H310.164C310.277 211.74 309.59 208.706 308.172 205.996C306.754 203.285 304.654 200.991 302.078 199.34C306.141 199.49 309.999 201.163 312.885 204.027C315.771 206.891 317.474 210.735 317.656 214.797ZM292.815 201.863L296.559 208.347C293.856 209.778 291.572 211.889 289.934 214.471C288.295 217.053 287.358 220.018 287.214 223.073C285.308 219.481 284.826 215.303 285.864 211.372C286.902 207.44 289.384 204.045 292.815 201.863ZM288.668 225.333C288.382 222.15 289.045 218.954 290.574 216.148C292.103 213.341 294.429 211.051 297.258 209.566L300.688 215.5L292.815 229.137C291.223 228.119 289.819 226.832 288.668 225.333ZM301.5 231.672C298.899 231.675 296.337 231.046 294.033 229.84L297.777 223.356C300.367 224.981 303.335 225.903 306.39 226.031C309.445 226.16 312.48 225.489 315.197 224.087C313.743 226.407 311.723 228.321 309.328 229.647C306.932 230.974 304.239 231.671 301.5 231.672Z" fill="black"/>
<path d="M26.5008 139.301C20.8782 139.301 15.4859 141.534 11.5101 145.51C7.53435 149.486 5.30078 154.878 5.30078 160.501C5.30078 166.123 7.53435 171.516 11.5101 175.491C15.4859 179.467 20.8782 181.701 26.5008 181.701C32.1234 181.701 37.5157 179.467 41.4914 175.491C45.4672 171.516 47.7008 166.123 47.7008 160.501C47.7008 154.878 45.4672 149.486 41.4914 145.51C37.5157 141.534 32.1234 139.301 26.5008 139.301ZM22.0912 142.478C24.9899 141.768 28.017 141.768 30.9157 142.478L26.5008 145.051L22.0912 142.478ZM18.7946 143.623L25.1811 147.346V151.851L17.8432 157.024L13.7092 155.521L12.0503 148.865C13.8598 146.616 16.1691 144.823 18.7946 143.623ZM10.0734 151.878L11.1149 156.065L8.03028 158.805C8.25553 156.322 8.96573 153.982 10.0734 151.878ZM8.04353 162.335L12.8851 158.042L16.982 159.528L19.7512 168.247L17.8512 171.09H11.2686C9.45996 168.497 8.34848 165.482 8.04088 162.335M13.5078 173.74H17.6259L18.9774 177.461C16.946 176.558 15.0934 175.298 13.5078 173.74ZM22.1892 178.547L20.0295 172.595L21.911 169.778H31.0985L32.9827 172.595L30.8229 178.545C27.9851 179.224 25.0271 179.226 22.1892 178.547ZM34.0374 177.453L35.3889 173.738H39.4937C37.9117 175.292 36.0637 176.551 34.0374 177.453ZM41.733 171.088H35.1663L33.2583 168.239L35.9745 159.528L40.1271 158.034L44.9607 162.332C44.6531 165.479 43.5416 168.494 41.733 171.088ZM44.9739 158.797L41.8999 156.065L42.9414 151.899C44.0385 153.992 44.7487 156.324 44.9739 158.797ZM40.9618 148.881L39.3056 155.513L35.108 157.024L27.8284 151.851V147.346L34.2123 143.62C36.8423 144.823 39.1546 146.625 40.9645 148.881M19.6055 159.03L26.5008 154.159L33.3537 159.027L30.8309 167.126H22.1733L19.6055 159.03Z" fill="black"/>
</g>
<use xlink:href="#pattern0_1433_40689_inner" transform="translate(-181.79 340.26)"/>
<use xlink:href="#pattern0_1433_40689_inner" transform="translate(181.79 340.26)"/>
</pattern></defs>
</svg>
